<mxfile host="app.diagrams.net" agent="Mozilla/5.0 (Windows NT 10.0; Win64; x64) AppleWebKit/537.36 (KHTML, like Gecko) Chrome/129.0.0.0 Safari/537.36" version="24.8.1">
  <diagram name="Page-1" id="13e1069c-82ec-6db2-03f1-153e76fe0fe0">
    <mxGraphModel dx="1162" dy="1180" grid="1" gridSize="10" guides="1" tooltips="1" connect="1" arrows="1" fold="1" page="1" pageScale="1" pageWidth="1100" pageHeight="850" background="none" math="0" shadow="0">
      <root>
        <mxCell id="0" />
        <mxCell id="1" parent="0" />
        <mxCell id="-6PEmMJlGs1gWMdDE86d-1" value="" style="html=1;points=[[0,0,0,0,5],[0,1,0,0,-5],[1,0,0,0,5],[1,1,0,0,-5]];perimeter=orthogonalPerimeter;outlineConnect=0;targetShapes=umlLifeline;portConstraint=eastwest;newEdgeStyle={&quot;curved&quot;:0,&quot;rounded&quot;:0};" parent="1" vertex="1">
          <mxGeometry x="1250" y="210" width="20" height="1070" as="geometry" />
        </mxCell>
        <mxCell id="-6PEmMJlGs1gWMdDE86d-2" value=":User" style="html=1;whiteSpace=wrap;" parent="1" vertex="1">
          <mxGeometry x="1205" y="90" width="110" height="50" as="geometry" />
        </mxCell>
        <mxCell id="-6PEmMJlGs1gWMdDE86d-3" value="" style="endArrow=none;dashed=1;html=1;rounded=0;entryX=0.5;entryY=1;entryDx=0;entryDy=0;" parent="1" source="-6PEmMJlGs1gWMdDE86d-1" edge="1">
          <mxGeometry width="50" height="50" relative="1" as="geometry">
            <mxPoint x="1259.9299999999998" y="170" as="sourcePoint" />
            <mxPoint x="1259.9299999999998" y="140" as="targetPoint" />
          </mxGeometry>
        </mxCell>
        <mxCell id="-6PEmMJlGs1gWMdDE86d-4" value=":SMS" style="html=1;whiteSpace=wrap;" parent="1" vertex="1">
          <mxGeometry x="1430" y="90" width="110" height="50" as="geometry" />
        </mxCell>
        <mxCell id="-6PEmMJlGs1gWMdDE86d-6" value=":Student" style="html=1;whiteSpace=wrap;" parent="1" vertex="1">
          <mxGeometry x="1980" y="90" width="110" height="50" as="geometry" />
        </mxCell>
        <mxCell id="-6PEmMJlGs1gWMdDE86d-10" value="" style="endArrow=none;dashed=1;html=1;rounded=0;entryX=0.454;entryY=1.025;entryDx=0;entryDy=0;entryPerimeter=0;" parent="1" target="-6PEmMJlGs1gWMdDE86d-4" edge="1">
          <mxGeometry width="50" height="50" relative="1" as="geometry">
            <mxPoint x="1479.8699999999997" y="210" as="sourcePoint" />
            <mxPoint x="1479.8699999999997" y="180" as="targetPoint" />
          </mxGeometry>
        </mxCell>
        <mxCell id="-6PEmMJlGs1gWMdDE86d-83" value=":Admin" style="html=1;whiteSpace=wrap;" parent="1" vertex="1">
          <mxGeometry x="1830" y="90" width="110" height="50" as="geometry" />
        </mxCell>
        <mxCell id="-6PEmMJlGs1gWMdDE86d-84" value=":Professor" style="html=1;whiteSpace=wrap;" parent="1" vertex="1">
          <mxGeometry x="1650" y="90" width="110" height="50" as="geometry" />
        </mxCell>
        <mxCell id="-6PEmMJlGs1gWMdDE86d-223" value="" style="endArrow=none;dashed=1;html=1;rounded=0;entryX=0.5;entryY=1;entryDx=0;entryDy=0;" parent="1" source="-6PEmMJlGs1gWMdDE86d-369" edge="1">
          <mxGeometry width="50" height="50" relative="1" as="geometry">
            <mxPoint x="1884.5800000000002" y="840" as="sourcePoint" />
            <mxPoint x="1884.58" y="140" as="targetPoint" />
          </mxGeometry>
        </mxCell>
        <mxCell id="-6PEmMJlGs1gWMdDE86d-227" value="" style="endArrow=classic;html=1;rounded=0;" parent="1" edge="1">
          <mxGeometry width="50" height="50" relative="1" as="geometry">
            <mxPoint x="1270" y="750" as="sourcePoint" />
            <mxPoint x="1475" y="750" as="targetPoint" />
          </mxGeometry>
        </mxCell>
        <mxCell id="-6PEmMJlGs1gWMdDE86d-228" value="Remove student request" style="edgeLabel;html=1;align=center;verticalAlign=middle;resizable=0;points=[];" parent="-6PEmMJlGs1gWMdDE86d-227" vertex="1" connectable="0">
          <mxGeometry x="-0.276" relative="1" as="geometry">
            <mxPoint x="27" as="offset" />
          </mxGeometry>
        </mxCell>
        <mxCell id="-6PEmMJlGs1gWMdDE86d-229" value="" style="html=1;points=[[0,0,0,0,5],[0,1,0,0,-5],[1,0,0,0,5],[1,1,0,0,-5]];perimeter=orthogonalPerimeter;outlineConnect=0;targetShapes=umlLifeline;portConstraint=eastwest;newEdgeStyle={&quot;curved&quot;:0,&quot;rounded&quot;:0};" parent="1" vertex="1">
          <mxGeometry x="1470" y="750" width="20" height="50" as="geometry" />
        </mxCell>
        <mxCell id="-6PEmMJlGs1gWMdDE86d-230" value="" style="html=1;points=[[0,0,0,0,5],[0,1,0,0,-5],[1,0,0,0,5],[1,1,0,0,-5]];perimeter=orthogonalPerimeter;outlineConnect=0;targetShapes=umlLifeline;portConstraint=eastwest;newEdgeStyle={&quot;curved&quot;:0,&quot;rounded&quot;:0};" parent="1" vertex="1">
          <mxGeometry x="1875" y="750" width="20" height="50" as="geometry" />
        </mxCell>
        <mxCell id="-6PEmMJlGs1gWMdDE86d-231" value="" style="endArrow=open;endFill=1;endSize=12;html=1;rounded=0;" parent="1" target="-6PEmMJlGs1gWMdDE86d-230" edge="1">
          <mxGeometry width="160" relative="1" as="geometry">
            <mxPoint x="1490" y="799" as="sourcePoint" />
            <mxPoint x="1920" y="800" as="targetPoint" />
          </mxGeometry>
        </mxCell>
        <mxCell id="-6PEmMJlGs1gWMdDE86d-232" value="&lt;span style=&quot;color: rgba(0, 0, 0, 0); font-family: monospace; font-size: 0px; text-align: start; background-color: rgb(251, 251, 251);&quot;&gt;%3CmxGraphModel%3E%3Croot%3E%3CmxCell%20id%3D%220%22%2F%3E%3CmxCell%20id%3D%221%22%20parent%3D%220%22%2F%3E%3CmxCell%20id%3D%222%22%20value%3D%22Administrator%20issues%20the%20command%20sudo%20apt%20update%26lt%3Bdiv%26gt%3B%26lt%3Bbr%2F%26gt%3B%26lt%3B%2Fdiv%26gt%3B%22%20style%3D%22edgeLabel%3Bhtml%3D1%3Balign%3Dcenter%3BverticalAlign%3Dmiddle%3Bresizable%3D0%3Bpoints%3D%5B%5D%3B%22%20vertex%3D%221%22%20connectable%3D%220%22%20parent%3D%221%22%3E%3CmxGeometry%20x%3D%22359.8571428571429%22%20y%3D%22280%22%20as%3D%22geometry%22%2F%3E%3C%2FmxCell%3E%3C%2Froot%3E%3C%2FmxGraphModel%3E&lt;/span&gt;" style="edgeLabel;html=1;align=center;verticalAlign=middle;resizable=0;points=[];" parent="-6PEmMJlGs1gWMdDE86d-231" vertex="1" connectable="0">
          <mxGeometry x="0.1219" y="1" relative="1" as="geometry">
            <mxPoint as="offset" />
          </mxGeometry>
        </mxCell>
        <mxCell id="-6PEmMJlGs1gWMdDE86d-233" value="&lt;span style=&quot;color: rgba(0, 0, 0, 0); font-family: monospace; font-size: 0px; text-align: start; background-color: rgb(251, 251, 251);&quot;&gt;%3CmxGraphModel%3E%3Croot%3E%3CmxCell%20id%3D%220%22%2F%3E%3CmxCell%20id%3D%221%22%20parent%3D%220%22%2F%3E%3CmxCell%20id%3D%222%22%20value%3D%22Administrator%20logs%20in%20with%20username%20and%20password%22%20style%3D%22edgeLabel%3Bhtml%3D1%3Balign%3Dcenter%3BverticalAlign%3Dmiddle%3Bresizable%3D0%3Bpoints%3D%5B%5D%3B%22%20vertex%3D%221%22%20connectable%3D%220%22%20parent%3D%221%22%3E%3CmxGeometry%20x%3D%22359.8571428571429%22%20y%3D%22177%22%20as%3D%22geometry%22%2F%3E%3C%2FmxCell%3E%3C%2Froot%3E%3C%2FmxGraphModel%3E&lt;/span&gt;" style="edgeLabel;html=1;align=center;verticalAlign=middle;resizable=0;points=[];" parent="-6PEmMJlGs1gWMdDE86d-231" vertex="1" connectable="0">
          <mxGeometry x="-0.0087" y="4" relative="1" as="geometry">
            <mxPoint as="offset" />
          </mxGeometry>
        </mxCell>
        <mxCell id="-6PEmMJlGs1gWMdDE86d-234" value="Remove student request" style="edgeLabel;html=1;align=center;verticalAlign=middle;resizable=0;points=[];" parent="-6PEmMJlGs1gWMdDE86d-231" vertex="1" connectable="0">
          <mxGeometry x="0.0142" y="4" relative="1" as="geometry">
            <mxPoint x="-111" y="5" as="offset" />
          </mxGeometry>
        </mxCell>
        <mxCell id="-6PEmMJlGs1gWMdDE86d-236" value="" style="html=1;points=[[0,0,0,0,5],[0,1,0,0,-5],[1,0,0,0,5],[1,1,0,0,-5]];perimeter=orthogonalPerimeter;outlineConnect=0;targetShapes=umlLifeline;portConstraint=eastwest;newEdgeStyle={&quot;curved&quot;:0,&quot;rounded&quot;:0};" parent="1" vertex="1">
          <mxGeometry x="1875" y="820" width="20" height="50" as="geometry" />
        </mxCell>
        <mxCell id="-6PEmMJlGs1gWMdDE86d-237" value="" style="endArrow=open;endFill=1;endSize=12;html=1;rounded=0;" parent="1" target="-6PEmMJlGs1gWMdDE86d-241" edge="1" source="-6PEmMJlGs1gWMdDE86d-236">
          <mxGeometry width="160" relative="1" as="geometry">
            <mxPoint x="1930" y="870" as="sourcePoint" />
            <mxPoint x="1505" y="870" as="targetPoint" />
          </mxGeometry>
        </mxCell>
        <mxCell id="-6PEmMJlGs1gWMdDE86d-238" value="&lt;span style=&quot;color: rgba(0, 0, 0, 0); font-family: monospace; font-size: 0px; text-align: start; background-color: rgb(251, 251, 251);&quot;&gt;%3CmxGraphModel%3E%3Croot%3E%3CmxCell%20id%3D%220%22%2F%3E%3CmxCell%20id%3D%221%22%20parent%3D%220%22%2F%3E%3CmxCell%20id%3D%222%22%20value%3D%22Administrator%20issues%20the%20command%20sudo%20apt%20update%26lt%3Bdiv%26gt%3B%26lt%3Bbr%2F%26gt%3B%26lt%3B%2Fdiv%26gt%3B%22%20style%3D%22edgeLabel%3Bhtml%3D1%3Balign%3Dcenter%3BverticalAlign%3Dmiddle%3Bresizable%3D0%3Bpoints%3D%5B%5D%3B%22%20vertex%3D%221%22%20connectable%3D%220%22%20parent%3D%221%22%3E%3CmxGeometry%20x%3D%22359.8571428571429%22%20y%3D%22280%22%20as%3D%22geometry%22%2F%3E%3C%2FmxCell%3E%3C%2Froot%3E%3C%2FmxGraphModel%3E&lt;/span&gt;" style="edgeLabel;html=1;align=center;verticalAlign=middle;resizable=0;points=[];" parent="-6PEmMJlGs1gWMdDE86d-237" vertex="1" connectable="0">
          <mxGeometry x="0.1219" y="1" relative="1" as="geometry">
            <mxPoint as="offset" />
          </mxGeometry>
        </mxCell>
        <mxCell id="-6PEmMJlGs1gWMdDE86d-239" value="&lt;span style=&quot;color: rgba(0, 0, 0, 0); font-family: monospace; font-size: 0px; text-align: start; background-color: rgb(251, 251, 251);&quot;&gt;%3CmxGraphModel%3E%3Croot%3E%3CmxCell%20id%3D%220%22%2F%3E%3CmxCell%20id%3D%221%22%20parent%3D%220%22%2F%3E%3CmxCell%20id%3D%222%22%20value%3D%22Administrator%20logs%20in%20with%20username%20and%20password%22%20style%3D%22edgeLabel%3Bhtml%3D1%3Balign%3Dcenter%3BverticalAlign%3Dmiddle%3Bresizable%3D0%3Bpoints%3D%5B%5D%3B%22%20vertex%3D%221%22%20connectable%3D%220%22%20parent%3D%221%22%3E%3CmxGeometry%20x%3D%22359.8571428571429%22%20y%3D%22177%22%20as%3D%22geometry%22%2F%3E%3C%2FmxCell%3E%3C%2Froot%3E%3C%2FmxGraphModel%3E&lt;/span&gt;" style="edgeLabel;html=1;align=center;verticalAlign=middle;resizable=0;points=[];" parent="-6PEmMJlGs1gWMdDE86d-237" vertex="1" connectable="0">
          <mxGeometry x="-0.0087" y="4" relative="1" as="geometry">
            <mxPoint as="offset" />
          </mxGeometry>
        </mxCell>
        <mxCell id="-6PEmMJlGs1gWMdDE86d-240" value="Student removed" style="edgeLabel;html=1;align=center;verticalAlign=middle;resizable=0;points=[];" parent="-6PEmMJlGs1gWMdDE86d-237" vertex="1" connectable="0">
          <mxGeometry x="0.0142" y="4" relative="1" as="geometry">
            <mxPoint x="-107" y="-4" as="offset" />
          </mxGeometry>
        </mxCell>
        <mxCell id="-6PEmMJlGs1gWMdDE86d-241" value="" style="html=1;points=[[0,0,0,0,5],[0,1,0,0,-5],[1,0,0,0,5],[1,1,0,0,-5]];perimeter=orthogonalPerimeter;outlineConnect=0;targetShapes=umlLifeline;portConstraint=eastwest;newEdgeStyle={&quot;curved&quot;:0,&quot;rounded&quot;:0};" parent="1" vertex="1">
          <mxGeometry x="1470" y="870" width="20" height="50" as="geometry" />
        </mxCell>
        <mxCell id="-6PEmMJlGs1gWMdDE86d-242" value="" style="endArrow=classic;html=1;rounded=0;" parent="1" edge="1">
          <mxGeometry width="50" height="50" relative="1" as="geometry">
            <mxPoint x="1475" y="920" as="sourcePoint" />
            <mxPoint x="1270" y="920" as="targetPoint" />
          </mxGeometry>
        </mxCell>
        <mxCell id="-6PEmMJlGs1gWMdDE86d-243" value="Student removed successfully" style="edgeLabel;html=1;align=center;verticalAlign=middle;resizable=0;points=[];" parent="-6PEmMJlGs1gWMdDE86d-242" vertex="1" connectable="0">
          <mxGeometry x="-0.276" relative="1" as="geometry">
            <mxPoint x="-18" as="offset" />
          </mxGeometry>
        </mxCell>
        <mxCell id="-6PEmMJlGs1gWMdDE86d-264" value="" style="html=1;points=[[0,0,0,0,5],[0,1,0,0,-5],[1,0,0,0,5],[1,1,0,0,-5]];perimeter=orthogonalPerimeter;outlineConnect=0;targetShapes=umlLifeline;portConstraint=eastwest;newEdgeStyle={&quot;curved&quot;:0,&quot;rounded&quot;:0};" parent="1" vertex="1">
          <mxGeometry x="1470" y="1050" width="20" height="50" as="geometry" />
        </mxCell>
        <mxCell id="-6PEmMJlGs1gWMdDE86d-265" value="" style="endArrow=classic;html=1;rounded=0;" parent="1" edge="1">
          <mxGeometry width="50" height="50" relative="1" as="geometry">
            <mxPoint x="1270" y="1050" as="sourcePoint" />
            <mxPoint x="1470" y="1050" as="targetPoint" />
          </mxGeometry>
        </mxCell>
        <mxCell id="-6PEmMJlGs1gWMdDE86d-266" value="Enrolled Students request" style="edgeLabel;html=1;align=center;verticalAlign=middle;resizable=0;points=[];" parent="-6PEmMJlGs1gWMdDE86d-265" vertex="1" connectable="0">
          <mxGeometry x="-0.276" relative="1" as="geometry">
            <mxPoint x="27" as="offset" />
          </mxGeometry>
        </mxCell>
        <mxCell id="-6PEmMJlGs1gWMdDE86d-267" value="" style="html=1;points=[[0,0,0,0,5],[0,1,0,0,-5],[1,0,0,0,5],[1,1,0,0,-5]];perimeter=orthogonalPerimeter;outlineConnect=0;targetShapes=umlLifeline;portConstraint=eastwest;newEdgeStyle={&quot;curved&quot;:0,&quot;rounded&quot;:0};" parent="1" vertex="1">
          <mxGeometry x="2025" y="1050" width="20" height="50" as="geometry" />
        </mxCell>
        <mxCell id="-6PEmMJlGs1gWMdDE86d-268" value="" style="endArrow=open;endFill=1;endSize=12;html=1;rounded=0;" parent="1" source="-6PEmMJlGs1gWMdDE86d-564" edge="1">
          <mxGeometry width="160" relative="1" as="geometry">
            <mxPoint x="1725" y="1049.67" as="sourcePoint" />
            <mxPoint x="2025" y="1049.67" as="targetPoint" />
          </mxGeometry>
        </mxCell>
        <mxCell id="-6PEmMJlGs1gWMdDE86d-269" value="&lt;span style=&quot;color: rgba(0, 0, 0, 0); font-family: monospace; font-size: 0px; text-align: start; background-color: rgb(251, 251, 251);&quot;&gt;%3CmxGraphModel%3E%3Croot%3E%3CmxCell%20id%3D%220%22%2F%3E%3CmxCell%20id%3D%221%22%20parent%3D%220%22%2F%3E%3CmxCell%20id%3D%222%22%20value%3D%22Administrator%20issues%20the%20command%20sudo%20apt%20update%26lt%3Bdiv%26gt%3B%26lt%3Bbr%2F%26gt%3B%26lt%3B%2Fdiv%26gt%3B%22%20style%3D%22edgeLabel%3Bhtml%3D1%3Balign%3Dcenter%3BverticalAlign%3Dmiddle%3Bresizable%3D0%3Bpoints%3D%5B%5D%3B%22%20vertex%3D%221%22%20connectable%3D%220%22%20parent%3D%221%22%3E%3CmxGeometry%20x%3D%22359.8571428571429%22%20y%3D%22280%22%20as%3D%22geometry%22%2F%3E%3C%2FmxCell%3E%3C%2Froot%3E%3C%2FmxGraphModel%3E&lt;/span&gt;" style="edgeLabel;html=1;align=center;verticalAlign=middle;resizable=0;points=[];" parent="-6PEmMJlGs1gWMdDE86d-268" vertex="1" connectable="0">
          <mxGeometry x="0.1219" y="1" relative="1" as="geometry">
            <mxPoint x="-155" as="offset" />
          </mxGeometry>
        </mxCell>
        <mxCell id="-6PEmMJlGs1gWMdDE86d-270" value="&lt;span style=&quot;color: rgba(0, 0, 0, 0); font-family: monospace; font-size: 0px; text-align: start; background-color: rgb(251, 251, 251);&quot;&gt;%3CmxGraphModel%3E%3Croot%3E%3CmxCell%20id%3D%220%22%2F%3E%3CmxCell%20id%3D%221%22%20parent%3D%220%22%2F%3E%3CmxCell%20id%3D%222%22%20value%3D%22Administrator%20logs%20in%20with%20username%20and%20password%22%20style%3D%22edgeLabel%3Bhtml%3D1%3Balign%3Dcenter%3BverticalAlign%3Dmiddle%3Bresizable%3D0%3Bpoints%3D%5B%5D%3B%22%20vertex%3D%221%22%20connectable%3D%220%22%20parent%3D%221%22%3E%3CmxGeometry%20x%3D%22359.8571428571429%22%20y%3D%22177%22%20as%3D%22geometry%22%2F%3E%3C%2FmxCell%3E%3C%2Froot%3E%3C%2FmxGraphModel%3E&lt;/span&gt;" style="edgeLabel;html=1;align=center;verticalAlign=middle;resizable=0;points=[];" parent="-6PEmMJlGs1gWMdDE86d-268" vertex="1" connectable="0">
          <mxGeometry x="-0.0087" y="4" relative="1" as="geometry">
            <mxPoint x="-155" as="offset" />
          </mxGeometry>
        </mxCell>
        <mxCell id="-6PEmMJlGs1gWMdDE86d-271" value="View enrolled students" style="edgeLabel;html=1;align=center;verticalAlign=middle;resizable=0;points=[];" parent="-6PEmMJlGs1gWMdDE86d-268" vertex="1" connectable="0">
          <mxGeometry x="0.0142" y="4" relative="1" as="geometry">
            <mxPoint x="-13" y="5" as="offset" />
          </mxGeometry>
        </mxCell>
        <mxCell id="-6PEmMJlGs1gWMdDE86d-273" value="" style="html=1;points=[[0,0,0,0,5],[0,1,0,0,-5],[1,0,0,0,5],[1,1,0,0,-5]];perimeter=orthogonalPerimeter;outlineConnect=0;targetShapes=umlLifeline;portConstraint=eastwest;newEdgeStyle={&quot;curved&quot;:0,&quot;rounded&quot;:0};" parent="1" vertex="1">
          <mxGeometry x="2025" y="1130" width="20" height="50" as="geometry" />
        </mxCell>
        <mxCell id="-6PEmMJlGs1gWMdDE86d-274" value="" style="html=1;align=left;spacingLeft=2;endArrow=block;rounded=0;edgeStyle=orthogonalEdgeStyle;curved=0;rounded=0;" parent="1" edge="1">
          <mxGeometry x="-0.0588" y="80" relative="1" as="geometry">
            <mxPoint x="2050" y="1130" as="sourcePoint" />
            <Array as="points">
              <mxPoint x="2080" y="1160" />
            </Array>
            <mxPoint x="2055" y="1160" as="targetPoint" />
            <mxPoint as="offset" />
          </mxGeometry>
        </mxCell>
        <mxCell id="-6PEmMJlGs1gWMdDE86d-275" value="Retrieve enrolled students" style="text;html=1;align=center;verticalAlign=middle;resizable=0;points=[];autosize=1;strokeColor=none;fillColor=none;" parent="1" vertex="1">
          <mxGeometry x="2080" y="1110" width="160" height="30" as="geometry" />
        </mxCell>
        <mxCell id="-6PEmMJlGs1gWMdDE86d-276" value="" style="html=1;points=[[0,0,0,0,5],[0,1,0,0,-5],[1,0,0,0,5],[1,1,0,0,-5]];perimeter=orthogonalPerimeter;outlineConnect=0;targetShapes=umlLifeline;portConstraint=eastwest;newEdgeStyle={&quot;curved&quot;:0,&quot;rounded&quot;:0};" parent="1" vertex="1">
          <mxGeometry x="2025" y="1210" width="20" height="50" as="geometry" />
        </mxCell>
        <mxCell id="-6PEmMJlGs1gWMdDE86d-277" value="" style="endArrow=open;endFill=1;endSize=12;html=1;rounded=0;" parent="1" target="-6PEmMJlGs1gWMdDE86d-289" edge="1">
          <mxGeometry width="160" relative="1" as="geometry">
            <mxPoint x="2030" y="1210" as="sourcePoint" />
            <mxPoint x="1785" y="1200" as="targetPoint" />
          </mxGeometry>
        </mxCell>
        <mxCell id="-6PEmMJlGs1gWMdDE86d-278" value="&lt;span style=&quot;color: rgba(0, 0, 0, 0); font-family: monospace; font-size: 0px; text-align: start; background-color: rgb(251, 251, 251);&quot;&gt;%3CmxGraphModel%3E%3Croot%3E%3CmxCell%20id%3D%220%22%2F%3E%3CmxCell%20id%3D%221%22%20parent%3D%220%22%2F%3E%3CmxCell%20id%3D%222%22%20value%3D%22Administrator%20issues%20the%20command%20sudo%20apt%20update%26lt%3Bdiv%26gt%3B%26lt%3Bbr%2F%26gt%3B%26lt%3B%2Fdiv%26gt%3B%22%20style%3D%22edgeLabel%3Bhtml%3D1%3Balign%3Dcenter%3BverticalAlign%3Dmiddle%3Bresizable%3D0%3Bpoints%3D%5B%5D%3B%22%20vertex%3D%221%22%20connectable%3D%220%22%20parent%3D%221%22%3E%3CmxGeometry%20x%3D%22359.8571428571429%22%20y%3D%22280%22%20as%3D%22geometry%22%2F%3E%3C%2FmxCell%3E%3C%2Froot%3E%3C%2FmxGraphModel%3E&lt;/span&gt;" style="edgeLabel;html=1;align=center;verticalAlign=middle;resizable=0;points=[];" parent="-6PEmMJlGs1gWMdDE86d-277" vertex="1" connectable="0">
          <mxGeometry x="0.1219" y="1" relative="1" as="geometry">
            <mxPoint as="offset" />
          </mxGeometry>
        </mxCell>
        <mxCell id="-6PEmMJlGs1gWMdDE86d-279" value="&lt;span style=&quot;color: rgba(0, 0, 0, 0); font-family: monospace; font-size: 0px; text-align: start; background-color: rgb(251, 251, 251);&quot;&gt;%3CmxGraphModel%3E%3Croot%3E%3CmxCell%20id%3D%220%22%2F%3E%3CmxCell%20id%3D%221%22%20parent%3D%220%22%2F%3E%3CmxCell%20id%3D%222%22%20value%3D%22Administrator%20logs%20in%20with%20username%20and%20password%22%20style%3D%22edgeLabel%3Bhtml%3D1%3Balign%3Dcenter%3BverticalAlign%3Dmiddle%3Bresizable%3D0%3Bpoints%3D%5B%5D%3B%22%20vertex%3D%221%22%20connectable%3D%220%22%20parent%3D%221%22%3E%3CmxGeometry%20x%3D%22359.8571428571429%22%20y%3D%22177%22%20as%3D%22geometry%22%2F%3E%3C%2FmxCell%3E%3C%2Froot%3E%3C%2FmxGraphModel%3E&lt;/span&gt;" style="edgeLabel;html=1;align=center;verticalAlign=middle;resizable=0;points=[];" parent="-6PEmMJlGs1gWMdDE86d-277" vertex="1" connectable="0">
          <mxGeometry x="-0.0087" y="4" relative="1" as="geometry">
            <mxPoint x="-155" as="offset" />
          </mxGeometry>
        </mxCell>
        <mxCell id="-6PEmMJlGs1gWMdDE86d-280" value="Obtained information about enrolled students" style="edgeLabel;html=1;align=center;verticalAlign=middle;resizable=0;points=[];" parent="-6PEmMJlGs1gWMdDE86d-277" vertex="1" connectable="0">
          <mxGeometry x="0.0142" y="4" relative="1" as="geometry">
            <mxPoint x="3" y="-4" as="offset" />
          </mxGeometry>
        </mxCell>
        <mxCell id="-6PEmMJlGs1gWMdDE86d-281" value="" style="html=1;points=[[0,0,0,0,5],[0,1,0,0,-5],[1,0,0,0,5],[1,1,0,0,-5]];perimeter=orthogonalPerimeter;outlineConnect=0;targetShapes=umlLifeline;portConstraint=eastwest;newEdgeStyle={&quot;curved&quot;:0,&quot;rounded&quot;:0};" parent="1" vertex="1">
          <mxGeometry x="1470" y="1200" width="20" height="50" as="geometry" />
        </mxCell>
        <mxCell id="-6PEmMJlGs1gWMdDE86d-282" value="" style="endArrow=classic;html=1;rounded=0;" parent="1" edge="1">
          <mxGeometry width="50" height="50" relative="1" as="geometry">
            <mxPoint x="1475" y="1200" as="sourcePoint" />
            <mxPoint x="1270" y="1200" as="targetPoint" />
          </mxGeometry>
        </mxCell>
        <mxCell id="-6PEmMJlGs1gWMdDE86d-283" value="Enrolled Students" style="edgeLabel;html=1;align=center;verticalAlign=middle;resizable=0;points=[];" parent="-6PEmMJlGs1gWMdDE86d-282" vertex="1" connectable="0">
          <mxGeometry x="-0.276" relative="1" as="geometry">
            <mxPoint x="-18" as="offset" />
          </mxGeometry>
        </mxCell>
        <mxCell id="-6PEmMJlGs1gWMdDE86d-289" value="" style="html=1;points=[[0,0,0,0,5],[0,1,0,0,-5],[1,0,0,0,5],[1,1,0,0,-5]];perimeter=orthogonalPerimeter;outlineConnect=0;targetShapes=umlLifeline;portConstraint=eastwest;newEdgeStyle={&quot;curved&quot;:0,&quot;rounded&quot;:0};" parent="1" vertex="1">
          <mxGeometry x="1700" y="1210" width="20" height="50" as="geometry" />
        </mxCell>
        <mxCell id="-6PEmMJlGs1gWMdDE86d-290" value="" style="endArrow=open;endFill=1;endSize=12;html=1;rounded=0;" parent="1" source="-6PEmMJlGs1gWMdDE86d-289" edge="1">
          <mxGeometry width="160" relative="1" as="geometry">
            <mxPoint x="1755" y="1250" as="sourcePoint" />
            <mxPoint x="1490" y="1250" as="targetPoint" />
          </mxGeometry>
        </mxCell>
        <mxCell id="-6PEmMJlGs1gWMdDE86d-291" value="&lt;span style=&quot;color: rgba(0, 0, 0, 0); font-family: monospace; font-size: 0px; text-align: start; background-color: rgb(251, 251, 251);&quot;&gt;%3CmxGraphModel%3E%3Croot%3E%3CmxCell%20id%3D%220%22%2F%3E%3CmxCell%20id%3D%221%22%20parent%3D%220%22%2F%3E%3CmxCell%20id%3D%222%22%20value%3D%22Administrator%20issues%20the%20command%20sudo%20apt%20update%26lt%3Bdiv%26gt%3B%26lt%3Bbr%2F%26gt%3B%26lt%3B%2Fdiv%26gt%3B%22%20style%3D%22edgeLabel%3Bhtml%3D1%3Balign%3Dcenter%3BverticalAlign%3Dmiddle%3Bresizable%3D0%3Bpoints%3D%5B%5D%3B%22%20vertex%3D%221%22%20connectable%3D%220%22%20parent%3D%221%22%3E%3CmxGeometry%20x%3D%22359.8571428571429%22%20y%3D%22280%22%20as%3D%22geometry%22%2F%3E%3C%2FmxCell%3E%3C%2Froot%3E%3C%2FmxGraphModel%3E&lt;/span&gt;" style="edgeLabel;html=1;align=center;verticalAlign=middle;resizable=0;points=[];" parent="-6PEmMJlGs1gWMdDE86d-290" vertex="1" connectable="0">
          <mxGeometry x="0.1219" y="1" relative="1" as="geometry">
            <mxPoint as="offset" />
          </mxGeometry>
        </mxCell>
        <mxCell id="-6PEmMJlGs1gWMdDE86d-292" value="&lt;span style=&quot;color: rgba(0, 0, 0, 0); font-family: monospace; font-size: 0px; text-align: start; background-color: rgb(251, 251, 251);&quot;&gt;%3CmxGraphModel%3E%3Croot%3E%3CmxCell%20id%3D%220%22%2F%3E%3CmxCell%20id%3D%221%22%20parent%3D%220%22%2F%3E%3CmxCell%20id%3D%222%22%20value%3D%22Administrator%20logs%20in%20with%20username%20and%20password%22%20style%3D%22edgeLabel%3Bhtml%3D1%3Balign%3Dcenter%3BverticalAlign%3Dmiddle%3Bresizable%3D0%3Bpoints%3D%5B%5D%3B%22%20vertex%3D%221%22%20connectable%3D%220%22%20parent%3D%221%22%3E%3CmxGeometry%20x%3D%22359.8571428571429%22%20y%3D%22177%22%20as%3D%22geometry%22%2F%3E%3C%2FmxCell%3E%3C%2Froot%3E%3C%2FmxGraphModel%3E&lt;/span&gt;" style="edgeLabel;html=1;align=center;verticalAlign=middle;resizable=0;points=[];" parent="-6PEmMJlGs1gWMdDE86d-290" vertex="1" connectable="0">
          <mxGeometry x="-0.0087" y="4" relative="1" as="geometry">
            <mxPoint as="offset" />
          </mxGeometry>
        </mxCell>
        <mxCell id="-6PEmMJlGs1gWMdDE86d-293" value="Obtained Enrolled Student Information" style="edgeLabel;html=1;align=center;verticalAlign=middle;resizable=0;points=[];" parent="-6PEmMJlGs1gWMdDE86d-290" vertex="1" connectable="0">
          <mxGeometry x="0.0142" y="4" relative="1" as="geometry">
            <mxPoint x="7" y="-4" as="offset" />
          </mxGeometry>
        </mxCell>
        <mxCell id="-6PEmMJlGs1gWMdDE86d-294" value="" style="endArrow=none;dashed=1;html=1;rounded=0;" parent="1" source="-6PEmMJlGs1gWMdDE86d-273" target="-6PEmMJlGs1gWMdDE86d-267" edge="1">
          <mxGeometry width="50" height="50" relative="1" as="geometry">
            <mxPoint x="2170.17" y="1170" as="sourcePoint" />
            <mxPoint x="2170" y="1120" as="targetPoint" />
          </mxGeometry>
        </mxCell>
        <mxCell id="-6PEmMJlGs1gWMdDE86d-295" value="" style="endArrow=none;dashed=1;html=1;rounded=0;" parent="1" edge="1" target="-6PEmMJlGs1gWMdDE86d-273">
          <mxGeometry width="50" height="50" relative="1" as="geometry">
            <mxPoint x="2034.97" y="1210" as="sourcePoint" />
            <mxPoint x="2034.86" y="1190" as="targetPoint" />
          </mxGeometry>
        </mxCell>
        <mxCell id="-6PEmMJlGs1gWMdDE86d-296" value="" style="endArrow=none;dashed=1;html=1;rounded=0;" parent="1" source="-6PEmMJlGs1gWMdDE86d-289" edge="1" target="-6PEmMJlGs1gWMdDE86d-564">
          <mxGeometry width="50" height="50" relative="1" as="geometry">
            <mxPoint x="1769.71" y="800" as="sourcePoint" />
            <mxPoint x="1769.71" y="770" as="targetPoint" />
          </mxGeometry>
        </mxCell>
        <mxCell id="-6PEmMJlGs1gWMdDE86d-301" value="" style="endArrow=none;dashed=1;html=1;rounded=0;entryX=0.537;entryY=0.99;entryDx=0;entryDy=0;entryPerimeter=0;" parent="1" edge="1">
          <mxGeometry width="50" height="50" relative="1" as="geometry">
            <mxPoint x="1709.8999999999999" y="260" as="sourcePoint" />
            <mxPoint x="1709.8999999999999" y="139.5" as="targetPoint" />
            <Array as="points" />
          </mxGeometry>
        </mxCell>
        <mxCell id="-6PEmMJlGs1gWMdDE86d-304" value="" style="endArrow=none;dashed=1;html=1;rounded=0;" parent="1" edge="1">
          <mxGeometry width="50" height="50" relative="1" as="geometry">
            <mxPoint x="1480.1" y="1000" as="sourcePoint" />
            <mxPoint x="1479.86" y="920" as="targetPoint" />
          </mxGeometry>
        </mxCell>
        <mxCell id="-6PEmMJlGs1gWMdDE86d-307" value="" style="endArrow=none;dashed=1;html=1;rounded=0;" parent="1" edge="1">
          <mxGeometry width="50" height="50" relative="1" as="geometry">
            <mxPoint x="1479.86" y="1200" as="sourcePoint" />
            <mxPoint x="1479.86" y="1100" as="targetPoint" />
          </mxGeometry>
        </mxCell>
        <mxCell id="-6PEmMJlGs1gWMdDE86d-317" value="" style="endArrow=none;dashed=1;html=1;rounded=0;" parent="1" edge="1">
          <mxGeometry width="50" height="50" relative="1" as="geometry">
            <mxPoint x="1479.88" y="520" as="sourcePoint" />
            <mxPoint x="1479.88" y="310" as="targetPoint" />
          </mxGeometry>
        </mxCell>
        <mxCell id="-6PEmMJlGs1gWMdDE86d-316" value="" style="html=1;points=[[0,0,0,0,5],[0,1,0,0,-5],[1,0,0,0,5],[1,1,0,0,-5]];perimeter=orthogonalPerimeter;outlineConnect=0;targetShapes=umlLifeline;portConstraint=eastwest;newEdgeStyle={&quot;curved&quot;:0,&quot;rounded&quot;:0};" parent="1" vertex="1">
          <mxGeometry x="1470" y="260" width="20" height="50" as="geometry" />
        </mxCell>
        <mxCell id="-6PEmMJlGs1gWMdDE86d-318" value="" style="endArrow=classic;html=1;rounded=0;" parent="1" edge="1">
          <mxGeometry width="50" height="50" relative="1" as="geometry">
            <mxPoint x="1270" y="260" as="sourcePoint" />
            <mxPoint x="1470" y="260" as="targetPoint" />
          </mxGeometry>
        </mxCell>
        <mxCell id="-6PEmMJlGs1gWMdDE86d-319" value="Update Student GPA request" style="edgeLabel;html=1;align=center;verticalAlign=middle;resizable=0;points=[];" parent="-6PEmMJlGs1gWMdDE86d-318" vertex="1" connectable="0">
          <mxGeometry x="-0.276" relative="1" as="geometry">
            <mxPoint x="27" as="offset" />
          </mxGeometry>
        </mxCell>
        <mxCell id="-6PEmMJlGs1gWMdDE86d-320" value="" style="endArrow=open;endFill=1;endSize=12;html=1;rounded=0;" parent="1" edge="1" target="-6PEmMJlGs1gWMdDE86d-324">
          <mxGeometry width="160" relative="1" as="geometry">
            <mxPoint x="1490" y="309.31" as="sourcePoint" />
            <mxPoint x="1760" y="309.31" as="targetPoint" />
            <Array as="points" />
          </mxGeometry>
        </mxCell>
        <mxCell id="-6PEmMJlGs1gWMdDE86d-321" value="&lt;span style=&quot;color: rgba(0, 0, 0, 0); font-family: monospace; font-size: 0px; text-align: start; background-color: rgb(251, 251, 251);&quot;&gt;%3CmxGraphModel%3E%3Croot%3E%3CmxCell%20id%3D%220%22%2F%3E%3CmxCell%20id%3D%221%22%20parent%3D%220%22%2F%3E%3CmxCell%20id%3D%222%22%20value%3D%22Administrator%20issues%20the%20command%20sudo%20apt%20update%26lt%3Bdiv%26gt%3B%26lt%3Bbr%2F%26gt%3B%26lt%3B%2Fdiv%26gt%3B%22%20style%3D%22edgeLabel%3Bhtml%3D1%3Balign%3Dcenter%3BverticalAlign%3Dmiddle%3Bresizable%3D0%3Bpoints%3D%5B%5D%3B%22%20vertex%3D%221%22%20connectable%3D%220%22%20parent%3D%221%22%3E%3CmxGeometry%20x%3D%22359.8571428571429%22%20y%3D%22280%22%20as%3D%22geometry%22%2F%3E%3C%2FmxCell%3E%3C%2Froot%3E%3C%2FmxGraphModel%3E&lt;/span&gt;" style="edgeLabel;html=1;align=center;verticalAlign=middle;resizable=0;points=[];" parent="-6PEmMJlGs1gWMdDE86d-320" vertex="1" connectable="0">
          <mxGeometry x="0.1219" y="1" relative="1" as="geometry">
            <mxPoint as="offset" />
          </mxGeometry>
        </mxCell>
        <mxCell id="-6PEmMJlGs1gWMdDE86d-322" value="&lt;span style=&quot;color: rgba(0, 0, 0, 0); font-family: monospace; font-size: 0px; text-align: start; background-color: rgb(251, 251, 251);&quot;&gt;%3CmxGraphModel%3E%3Croot%3E%3CmxCell%20id%3D%220%22%2F%3E%3CmxCell%20id%3D%221%22%20parent%3D%220%22%2F%3E%3CmxCell%20id%3D%222%22%20value%3D%22Administrator%20logs%20in%20with%20username%20and%20password%22%20style%3D%22edgeLabel%3Bhtml%3D1%3Balign%3Dcenter%3BverticalAlign%3Dmiddle%3Bresizable%3D0%3Bpoints%3D%5B%5D%3B%22%20vertex%3D%221%22%20connectable%3D%220%22%20parent%3D%221%22%3E%3CmxGeometry%20x%3D%22359.8571428571429%22%20y%3D%22177%22%20as%3D%22geometry%22%2F%3E%3C%2FmxCell%3E%3C%2Froot%3E%3C%2FmxGraphModel%3E&lt;/span&gt;" style="edgeLabel;html=1;align=center;verticalAlign=middle;resizable=0;points=[];" parent="-6PEmMJlGs1gWMdDE86d-320" vertex="1" connectable="0">
          <mxGeometry x="-0.0087" y="4" relative="1" as="geometry">
            <mxPoint as="offset" />
          </mxGeometry>
        </mxCell>
        <mxCell id="-6PEmMJlGs1gWMdDE86d-323" value="Update Student GPA Request" style="edgeLabel;html=1;align=center;verticalAlign=middle;resizable=0;points=[];" parent="-6PEmMJlGs1gWMdDE86d-320" vertex="1" connectable="0">
          <mxGeometry x="0.0142" y="4" relative="1" as="geometry">
            <mxPoint x="-14" y="5" as="offset" />
          </mxGeometry>
        </mxCell>
        <mxCell id="-6PEmMJlGs1gWMdDE86d-326" value="" style="endArrow=none;dashed=1;html=1;rounded=0;" parent="1" source="-6PEmMJlGs1gWMdDE86d-337" target="-6PEmMJlGs1gWMdDE86d-324" edge="1">
          <mxGeometry width="50" height="50" relative="1" as="geometry">
            <mxPoint x="1770" y="880" as="sourcePoint" />
            <mxPoint x="1769.7100000000003" y="240" as="targetPoint" />
          </mxGeometry>
        </mxCell>
        <mxCell id="-6PEmMJlGs1gWMdDE86d-324" value="" style="html=1;points=[[0,0,0,0,5],[0,1,0,0,-5],[1,0,0,0,5],[1,1,0,0,-5]];perimeter=orthogonalPerimeter;outlineConnect=0;targetShapes=umlLifeline;portConstraint=eastwest;newEdgeStyle={&quot;curved&quot;:0,&quot;rounded&quot;:0};" parent="1" vertex="1">
          <mxGeometry x="1700" y="260" width="20" height="50" as="geometry" />
        </mxCell>
        <mxCell id="-6PEmMJlGs1gWMdDE86d-327" value="" style="html=1;points=[[0,0,0,0,5],[0,1,0,0,-5],[1,0,0,0,5],[1,1,0,0,-5]];perimeter=orthogonalPerimeter;outlineConnect=0;targetShapes=umlLifeline;portConstraint=eastwest;newEdgeStyle={&quot;curved&quot;:0,&quot;rounded&quot;:0};" parent="1" vertex="1">
          <mxGeometry x="2025" y="260" width="20" height="50" as="geometry" />
        </mxCell>
        <mxCell id="-6PEmMJlGs1gWMdDE86d-328" value="" style="endArrow=open;endFill=1;endSize=12;html=1;rounded=0;" parent="1" edge="1">
          <mxGeometry width="160" relative="1" as="geometry">
            <mxPoint x="1705" y="260" as="sourcePoint" />
            <mxPoint x="2025" y="260" as="targetPoint" />
            <Array as="points" />
          </mxGeometry>
        </mxCell>
        <mxCell id="-6PEmMJlGs1gWMdDE86d-329" value="&lt;span style=&quot;color: rgba(0, 0, 0, 0); font-family: monospace; font-size: 0px; text-align: start; background-color: rgb(251, 251, 251);&quot;&gt;%3CmxGraphModel%3E%3Croot%3E%3CmxCell%20id%3D%220%22%2F%3E%3CmxCell%20id%3D%221%22%20parent%3D%220%22%2F%3E%3CmxCell%20id%3D%222%22%20value%3D%22Administrator%20issues%20the%20command%20sudo%20apt%20update%26lt%3Bdiv%26gt%3B%26lt%3Bbr%2F%26gt%3B%26lt%3B%2Fdiv%26gt%3B%22%20style%3D%22edgeLabel%3Bhtml%3D1%3Balign%3Dcenter%3BverticalAlign%3Dmiddle%3Bresizable%3D0%3Bpoints%3D%5B%5D%3B%22%20vertex%3D%221%22%20connectable%3D%220%22%20parent%3D%221%22%3E%3CmxGeometry%20x%3D%22359.8571428571429%22%20y%3D%22280%22%20as%3D%22geometry%22%2F%3E%3C%2FmxCell%3E%3C%2Froot%3E%3C%2FmxGraphModel%3E&lt;/span&gt;" style="edgeLabel;html=1;align=center;verticalAlign=middle;resizable=0;points=[];" parent="-6PEmMJlGs1gWMdDE86d-328" vertex="1" connectable="0">
          <mxGeometry x="0.1219" y="1" relative="1" as="geometry">
            <mxPoint x="-155" as="offset" />
          </mxGeometry>
        </mxCell>
        <mxCell id="-6PEmMJlGs1gWMdDE86d-330" value="&lt;span style=&quot;color: rgba(0, 0, 0, 0); font-family: monospace; font-size: 0px; text-align: start; background-color: rgb(251, 251, 251);&quot;&gt;%3CmxGraphModel%3E%3Croot%3E%3CmxCell%20id%3D%220%22%2F%3E%3CmxCell%20id%3D%221%22%20parent%3D%220%22%2F%3E%3CmxCell%20id%3D%222%22%20value%3D%22Administrator%20logs%20in%20with%20username%20and%20password%22%20style%3D%22edgeLabel%3Bhtml%3D1%3Balign%3Dcenter%3BverticalAlign%3Dmiddle%3Bresizable%3D0%3Bpoints%3D%5B%5D%3B%22%20vertex%3D%221%22%20connectable%3D%220%22%20parent%3D%221%22%3E%3CmxGeometry%20x%3D%22359.8571428571429%22%20y%3D%22177%22%20as%3D%22geometry%22%2F%3E%3C%2FmxCell%3E%3C%2Froot%3E%3C%2FmxGraphModel%3E&lt;/span&gt;" style="edgeLabel;html=1;align=center;verticalAlign=middle;resizable=0;points=[];" parent="-6PEmMJlGs1gWMdDE86d-328" vertex="1" connectable="0">
          <mxGeometry x="-0.0087" y="4" relative="1" as="geometry">
            <mxPoint x="-155" as="offset" />
          </mxGeometry>
        </mxCell>
        <mxCell id="-6PEmMJlGs1gWMdDE86d-331" value="Update GPA" style="edgeLabel;html=1;align=center;verticalAlign=middle;resizable=0;points=[];" parent="-6PEmMJlGs1gWMdDE86d-328" vertex="1" connectable="0">
          <mxGeometry x="0.0142" y="4" relative="1" as="geometry">
            <mxPoint x="-27" y="5" as="offset" />
          </mxGeometry>
        </mxCell>
        <mxCell id="-6PEmMJlGs1gWMdDE86d-332" value="" style="html=1;points=[[0,0,0,0,5],[0,1,0,0,-5],[1,0,0,0,5],[1,1,0,0,-5]];perimeter=orthogonalPerimeter;outlineConnect=0;targetShapes=umlLifeline;portConstraint=eastwest;newEdgeStyle={&quot;curved&quot;:0,&quot;rounded&quot;:0};" parent="1" vertex="1">
          <mxGeometry x="2025" y="460" width="20" height="50" as="geometry" />
        </mxCell>
        <mxCell id="-6PEmMJlGs1gWMdDE86d-333" value="" style="endArrow=open;endFill=1;endSize=12;html=1;rounded=0;" parent="1" target="-6PEmMJlGs1gWMdDE86d-337" edge="1" source="-6PEmMJlGs1gWMdDE86d-332">
          <mxGeometry width="160" relative="1" as="geometry">
            <mxPoint x="2020" y="460" as="sourcePoint" />
            <mxPoint x="1785" y="460" as="targetPoint" />
          </mxGeometry>
        </mxCell>
        <mxCell id="-6PEmMJlGs1gWMdDE86d-334" value="&lt;span style=&quot;color: rgba(0, 0, 0, 0); font-family: monospace; font-size: 0px; text-align: start; background-color: rgb(251, 251, 251);&quot;&gt;%3CmxGraphModel%3E%3Croot%3E%3CmxCell%20id%3D%220%22%2F%3E%3CmxCell%20id%3D%221%22%20parent%3D%220%22%2F%3E%3CmxCell%20id%3D%222%22%20value%3D%22Administrator%20issues%20the%20command%20sudo%20apt%20update%26lt%3Bdiv%26gt%3B%26lt%3Bbr%2F%26gt%3B%26lt%3B%2Fdiv%26gt%3B%22%20style%3D%22edgeLabel%3Bhtml%3D1%3Balign%3Dcenter%3BverticalAlign%3Dmiddle%3Bresizable%3D0%3Bpoints%3D%5B%5D%3B%22%20vertex%3D%221%22%20connectable%3D%220%22%20parent%3D%221%22%3E%3CmxGeometry%20x%3D%22359.8571428571429%22%20y%3D%22280%22%20as%3D%22geometry%22%2F%3E%3C%2FmxCell%3E%3C%2Froot%3E%3C%2FmxGraphModel%3E&lt;/span&gt;" style="edgeLabel;html=1;align=center;verticalAlign=middle;resizable=0;points=[];" parent="-6PEmMJlGs1gWMdDE86d-333" vertex="1" connectable="0">
          <mxGeometry x="0.1219" y="1" relative="1" as="geometry">
            <mxPoint as="offset" />
          </mxGeometry>
        </mxCell>
        <mxCell id="-6PEmMJlGs1gWMdDE86d-335" value="&lt;span style=&quot;color: rgba(0, 0, 0, 0); font-family: monospace; font-size: 0px; text-align: start; background-color: rgb(251, 251, 251);&quot;&gt;%3CmxGraphModel%3E%3Croot%3E%3CmxCell%20id%3D%220%22%2F%3E%3CmxCell%20id%3D%221%22%20parent%3D%220%22%2F%3E%3CmxCell%20id%3D%222%22%20value%3D%22Administrator%20logs%20in%20with%20username%20and%20password%22%20style%3D%22edgeLabel%3Bhtml%3D1%3Balign%3Dcenter%3BverticalAlign%3Dmiddle%3Bresizable%3D0%3Bpoints%3D%5B%5D%3B%22%20vertex%3D%221%22%20connectable%3D%220%22%20parent%3D%221%22%3E%3CmxGeometry%20x%3D%22359.8571428571429%22%20y%3D%22177%22%20as%3D%22geometry%22%2F%3E%3C%2FmxCell%3E%3C%2Froot%3E%3C%2FmxGraphModel%3E&lt;/span&gt;" style="edgeLabel;html=1;align=center;verticalAlign=middle;resizable=0;points=[];" parent="-6PEmMJlGs1gWMdDE86d-333" vertex="1" connectable="0">
          <mxGeometry x="-0.0087" y="4" relative="1" as="geometry">
            <mxPoint x="-155" as="offset" />
          </mxGeometry>
        </mxCell>
        <mxCell id="-6PEmMJlGs1gWMdDE86d-336" value="GPA updated" style="edgeLabel;html=1;align=center;verticalAlign=middle;resizable=0;points=[];" parent="-6PEmMJlGs1gWMdDE86d-333" vertex="1" connectable="0">
          <mxGeometry x="0.0142" y="4" relative="1" as="geometry">
            <mxPoint x="-28" y="-4" as="offset" />
          </mxGeometry>
        </mxCell>
        <mxCell id="-6PEmMJlGs1gWMdDE86d-338" value="" style="endArrow=none;dashed=1;html=1;rounded=0;" parent="1" target="-6PEmMJlGs1gWMdDE86d-337" edge="1" source="-6PEmMJlGs1gWMdDE86d-564">
          <mxGeometry width="50" height="50" relative="1" as="geometry">
            <mxPoint x="1770" y="1140" as="sourcePoint" />
            <mxPoint x="1770" y="400" as="targetPoint" />
          </mxGeometry>
        </mxCell>
        <mxCell id="-6PEmMJlGs1gWMdDE86d-337" value="" style="html=1;points=[[0,0,0,0,5],[0,1,0,0,-5],[1,0,0,0,5],[1,1,0,0,-5]];perimeter=orthogonalPerimeter;outlineConnect=0;targetShapes=umlLifeline;portConstraint=eastwest;newEdgeStyle={&quot;curved&quot;:0,&quot;rounded&quot;:0};" parent="1" vertex="1">
          <mxGeometry x="1700" y="410" width="20" height="50" as="geometry" />
        </mxCell>
        <mxCell id="-6PEmMJlGs1gWMdDE86d-339" value="" style="html=1;points=[[0,0,0,0,5],[0,1,0,0,-5],[1,0,0,0,5],[1,1,0,0,-5]];perimeter=orthogonalPerimeter;outlineConnect=0;targetShapes=umlLifeline;portConstraint=eastwest;newEdgeStyle={&quot;curved&quot;:0,&quot;rounded&quot;:0};" parent="1" vertex="1">
          <mxGeometry x="1470" y="410" width="20" height="50" as="geometry" />
        </mxCell>
        <mxCell id="-6PEmMJlGs1gWMdDE86d-340" value="" style="endArrow=open;endFill=1;endSize=12;html=1;rounded=0;" parent="1" edge="1">
          <mxGeometry width="160" relative="1" as="geometry">
            <mxPoint x="1700" y="410" as="sourcePoint" />
            <mxPoint x="1495" y="410" as="targetPoint" />
          </mxGeometry>
        </mxCell>
        <mxCell id="-6PEmMJlGs1gWMdDE86d-341" value="&lt;span style=&quot;color: rgba(0, 0, 0, 0); font-family: monospace; font-size: 0px; text-align: start; background-color: rgb(251, 251, 251);&quot;&gt;%3CmxGraphModel%3E%3Croot%3E%3CmxCell%20id%3D%220%22%2F%3E%3CmxCell%20id%3D%221%22%20parent%3D%220%22%2F%3E%3CmxCell%20id%3D%222%22%20value%3D%22Administrator%20issues%20the%20command%20sudo%20apt%20update%26lt%3Bdiv%26gt%3B%26lt%3Bbr%2F%26gt%3B%26lt%3B%2Fdiv%26gt%3B%22%20style%3D%22edgeLabel%3Bhtml%3D1%3Balign%3Dcenter%3BverticalAlign%3Dmiddle%3Bresizable%3D0%3Bpoints%3D%5B%5D%3B%22%20vertex%3D%221%22%20connectable%3D%220%22%20parent%3D%221%22%3E%3CmxGeometry%20x%3D%22359.8571428571429%22%20y%3D%22280%22%20as%3D%22geometry%22%2F%3E%3C%2FmxCell%3E%3C%2Froot%3E%3C%2FmxGraphModel%3E&lt;/span&gt;" style="edgeLabel;html=1;align=center;verticalAlign=middle;resizable=0;points=[];" parent="-6PEmMJlGs1gWMdDE86d-340" vertex="1" connectable="0">
          <mxGeometry x="0.1219" y="1" relative="1" as="geometry">
            <mxPoint as="offset" />
          </mxGeometry>
        </mxCell>
        <mxCell id="-6PEmMJlGs1gWMdDE86d-342" value="&lt;span style=&quot;color: rgba(0, 0, 0, 0); font-family: monospace; font-size: 0px; text-align: start; background-color: rgb(251, 251, 251);&quot;&gt;%3CmxGraphModel%3E%3Croot%3E%3CmxCell%20id%3D%220%22%2F%3E%3CmxCell%20id%3D%221%22%20parent%3D%220%22%2F%3E%3CmxCell%20id%3D%222%22%20value%3D%22Administrator%20logs%20in%20with%20username%20and%20password%22%20style%3D%22edgeLabel%3Bhtml%3D1%3Balign%3Dcenter%3BverticalAlign%3Dmiddle%3Bresizable%3D0%3Bpoints%3D%5B%5D%3B%22%20vertex%3D%221%22%20connectable%3D%220%22%20parent%3D%221%22%3E%3CmxGeometry%20x%3D%22359.8571428571429%22%20y%3D%22177%22%20as%3D%22geometry%22%2F%3E%3C%2FmxCell%3E%3C%2Froot%3E%3C%2FmxGraphModel%3E&lt;/span&gt;" style="edgeLabel;html=1;align=center;verticalAlign=middle;resizable=0;points=[];" parent="-6PEmMJlGs1gWMdDE86d-340" vertex="1" connectable="0">
          <mxGeometry x="-0.0087" y="4" relative="1" as="geometry">
            <mxPoint as="offset" />
          </mxGeometry>
        </mxCell>
        <mxCell id="-6PEmMJlGs1gWMdDE86d-343" value="GPA updated" style="edgeLabel;html=1;align=center;verticalAlign=middle;resizable=0;points=[];" parent="-6PEmMJlGs1gWMdDE86d-340" vertex="1" connectable="0">
          <mxGeometry x="0.0142" y="4" relative="1" as="geometry">
            <mxPoint y="-4" as="offset" />
          </mxGeometry>
        </mxCell>
        <mxCell id="-6PEmMJlGs1gWMdDE86d-344" value="" style="endArrow=classic;html=1;rounded=0;" parent="1" edge="1">
          <mxGeometry width="50" height="50" relative="1" as="geometry">
            <mxPoint x="1472.5" y="460" as="sourcePoint" />
            <mxPoint x="1272.5" y="460" as="targetPoint" />
          </mxGeometry>
        </mxCell>
        <mxCell id="-6PEmMJlGs1gWMdDE86d-345" value="GPA updated succesfully" style="edgeLabel;html=1;align=center;verticalAlign=middle;resizable=0;points=[];" parent="-6PEmMJlGs1gWMdDE86d-344" vertex="1" connectable="0">
          <mxGeometry x="-0.276" relative="1" as="geometry">
            <mxPoint x="-31" as="offset" />
          </mxGeometry>
        </mxCell>
        <mxCell id="-6PEmMJlGs1gWMdDE86d-346" value="" style="endArrow=none;dashed=1;html=1;rounded=0;" parent="1" edge="1">
          <mxGeometry width="50" height="50" relative="1" as="geometry">
            <mxPoint x="1479.86" y="870" as="sourcePoint" />
            <mxPoint x="1479.8600000000001" y="800" as="targetPoint" />
          </mxGeometry>
        </mxCell>
        <mxCell id="-6PEmMJlGs1gWMdDE86d-347" value="" style="endArrow=none;dashed=1;html=1;rounded=0;" parent="1" edge="1">
          <mxGeometry width="50" height="50" relative="1" as="geometry">
            <mxPoint x="2034.58" y="1050" as="sourcePoint" />
            <mxPoint x="2034.58" y="510" as="targetPoint" />
          </mxGeometry>
        </mxCell>
        <mxCell id="-6PEmMJlGs1gWMdDE86d-348" value="" style="endArrow=none;dashed=1;html=1;rounded=0;" parent="1" edge="1">
          <mxGeometry width="50" height="50" relative="1" as="geometry">
            <mxPoint x="2034.58" y="460" as="sourcePoint" />
            <mxPoint x="2034.58" y="310" as="targetPoint" />
          </mxGeometry>
        </mxCell>
        <mxCell id="-6PEmMJlGs1gWMdDE86d-349" value="" style="endArrow=none;dashed=1;html=1;rounded=0;" parent="1" edge="1">
          <mxGeometry width="50" height="50" relative="1" as="geometry">
            <mxPoint x="2034.58" y="260" as="sourcePoint" />
            <mxPoint x="2034.58" y="140" as="targetPoint" />
          </mxGeometry>
        </mxCell>
        <mxCell id="-6PEmMJlGs1gWMdDE86d-355" value="" style="endArrow=classic;html=1;rounded=0;" parent="1" target="-6PEmMJlGs1gWMdDE86d-354" edge="1">
          <mxGeometry width="50" height="50" relative="1" as="geometry">
            <mxPoint x="1270" y="520" as="sourcePoint" />
            <mxPoint x="1475" y="520" as="targetPoint" />
          </mxGeometry>
        </mxCell>
        <mxCell id="-6PEmMJlGs1gWMdDE86d-356" value="Add Student request" style="edgeLabel;html=1;align=center;verticalAlign=middle;resizable=0;points=[];" parent="-6PEmMJlGs1gWMdDE86d-355" vertex="1" connectable="0">
          <mxGeometry x="-0.276" relative="1" as="geometry">
            <mxPoint x="27" as="offset" />
          </mxGeometry>
        </mxCell>
        <mxCell id="-6PEmMJlGs1gWMdDE86d-362" value="" style="endArrow=none;dashed=1;html=1;rounded=0;" parent="1" edge="1">
          <mxGeometry width="50" height="50" relative="1" as="geometry">
            <mxPoint x="1479.88" y="750" as="sourcePoint" />
            <mxPoint x="1479.88" y="665" as="targetPoint" />
          </mxGeometry>
        </mxCell>
        <mxCell id="-6PEmMJlGs1gWMdDE86d-366" value="" style="html=1;points=[[0,0,0,0,5],[0,1,0,0,-5],[1,0,0,0,5],[1,1,0,0,-5]];perimeter=orthogonalPerimeter;outlineConnect=0;targetShapes=umlLifeline;portConstraint=eastwest;newEdgeStyle={&quot;curved&quot;:0,&quot;rounded&quot;:0};" parent="1" vertex="1">
          <mxGeometry x="1470" y="665" width="20" height="50" as="geometry" />
        </mxCell>
        <mxCell id="-6PEmMJlGs1gWMdDE86d-367" value="" style="endArrow=classic;html=1;rounded=0;" parent="1" edge="1">
          <mxGeometry width="50" height="50" relative="1" as="geometry">
            <mxPoint x="1475" y="665" as="sourcePoint" />
            <mxPoint x="1270" y="665" as="targetPoint" />
          </mxGeometry>
        </mxCell>
        <mxCell id="-6PEmMJlGs1gWMdDE86d-368" value="Student Added Successfully" style="edgeLabel;html=1;align=center;verticalAlign=middle;resizable=0;points=[];" parent="-6PEmMJlGs1gWMdDE86d-367" vertex="1" connectable="0">
          <mxGeometry x="-0.276" relative="1" as="geometry">
            <mxPoint x="-18" as="offset" />
          </mxGeometry>
        </mxCell>
        <mxCell id="-6PEmMJlGs1gWMdDE86d-370" value="" style="endArrow=none;dashed=1;html=1;rounded=0;" parent="1" edge="1">
          <mxGeometry width="50" height="50" relative="1" as="geometry">
            <mxPoint x="1479.88" y="665" as="sourcePoint" />
            <mxPoint x="1479.88" y="569.9999999999995" as="targetPoint" />
          </mxGeometry>
        </mxCell>
        <mxCell id="-6PEmMJlGs1gWMdDE86d-354" value="" style="html=1;points=[[0,0,0,0,5],[0,1,0,0,-5],[1,0,0,0,5],[1,1,0,0,-5]];perimeter=orthogonalPerimeter;outlineConnect=0;targetShapes=umlLifeline;portConstraint=eastwest;newEdgeStyle={&quot;curved&quot;:0,&quot;rounded&quot;:0};" parent="1" vertex="1">
          <mxGeometry x="1470" y="520" width="20" height="50" as="geometry" />
        </mxCell>
        <mxCell id="-6PEmMJlGs1gWMdDE86d-371" value="" style="endArrow=classic;html=1;rounded=0;" parent="1" edge="1">
          <mxGeometry width="50" height="50" relative="1" as="geometry">
            <mxPoint x="1490" y="570" as="sourcePoint" />
            <mxPoint x="1875" y="569.77" as="targetPoint" />
            <Array as="points">
              <mxPoint x="1870" y="569.77" />
            </Array>
          </mxGeometry>
        </mxCell>
        <mxCell id="-6PEmMJlGs1gWMdDE86d-372" value="Add Student request" style="edgeLabel;html=1;align=center;verticalAlign=middle;resizable=0;points=[];" parent="-6PEmMJlGs1gWMdDE86d-371" vertex="1" connectable="0">
          <mxGeometry x="-0.276" relative="1" as="geometry">
            <mxPoint x="-49" as="offset" />
          </mxGeometry>
        </mxCell>
        <mxCell id="-6PEmMJlGs1gWMdDE86d-374" value="" style="endArrow=open;endFill=1;endSize=12;html=1;rounded=0;" parent="1" source="-6PEmMJlGs1gWMdDE86d-373" edge="1">
          <mxGeometry width="160" relative="1" as="geometry">
            <mxPoint x="1920" y="715" as="sourcePoint" />
            <mxPoint x="1490" y="715" as="targetPoint" />
          </mxGeometry>
        </mxCell>
        <mxCell id="-6PEmMJlGs1gWMdDE86d-375" value="&lt;span style=&quot;color: rgba(0, 0, 0, 0); font-family: monospace; font-size: 0px; text-align: start; background-color: rgb(251, 251, 251);&quot;&gt;%3CmxGraphModel%3E%3Croot%3E%3CmxCell%20id%3D%220%22%2F%3E%3CmxCell%20id%3D%221%22%20parent%3D%220%22%2F%3E%3CmxCell%20id%3D%222%22%20value%3D%22Administrator%20issues%20the%20command%20sudo%20apt%20update%26lt%3Bdiv%26gt%3B%26lt%3Bbr%2F%26gt%3B%26lt%3B%2Fdiv%26gt%3B%22%20style%3D%22edgeLabel%3Bhtml%3D1%3Balign%3Dcenter%3BverticalAlign%3Dmiddle%3Bresizable%3D0%3Bpoints%3D%5B%5D%3B%22%20vertex%3D%221%22%20connectable%3D%220%22%20parent%3D%221%22%3E%3CmxGeometry%20x%3D%22359.8571428571429%22%20y%3D%22280%22%20as%3D%22geometry%22%2F%3E%3C%2FmxCell%3E%3C%2Froot%3E%3C%2FmxGraphModel%3E&lt;/span&gt;" style="edgeLabel;html=1;align=center;verticalAlign=middle;resizable=0;points=[];" parent="-6PEmMJlGs1gWMdDE86d-374" vertex="1" connectable="0">
          <mxGeometry x="0.1219" y="1" relative="1" as="geometry">
            <mxPoint as="offset" />
          </mxGeometry>
        </mxCell>
        <mxCell id="-6PEmMJlGs1gWMdDE86d-376" value="&lt;span style=&quot;color: rgba(0, 0, 0, 0); font-family: monospace; font-size: 0px; text-align: start; background-color: rgb(251, 251, 251);&quot;&gt;%3CmxGraphModel%3E%3Croot%3E%3CmxCell%20id%3D%220%22%2F%3E%3CmxCell%20id%3D%221%22%20parent%3D%220%22%2F%3E%3CmxCell%20id%3D%222%22%20value%3D%22Administrator%20logs%20in%20with%20username%20and%20password%22%20style%3D%22edgeLabel%3Bhtml%3D1%3Balign%3Dcenter%3BverticalAlign%3Dmiddle%3Bresizable%3D0%3Bpoints%3D%5B%5D%3B%22%20vertex%3D%221%22%20connectable%3D%220%22%20parent%3D%221%22%3E%3CmxGeometry%20x%3D%22359.8571428571429%22%20y%3D%22177%22%20as%3D%22geometry%22%2F%3E%3C%2FmxCell%3E%3C%2Froot%3E%3C%2FmxGraphModel%3E&lt;/span&gt;" style="edgeLabel;html=1;align=center;verticalAlign=middle;resizable=0;points=[];" parent="-6PEmMJlGs1gWMdDE86d-374" vertex="1" connectable="0">
          <mxGeometry x="-0.0087" y="4" relative="1" as="geometry">
            <mxPoint as="offset" />
          </mxGeometry>
        </mxCell>
        <mxCell id="-6PEmMJlGs1gWMdDE86d-377" value="Student added" style="edgeLabel;html=1;align=center;verticalAlign=middle;resizable=0;points=[];" parent="-6PEmMJlGs1gWMdDE86d-374" vertex="1" connectable="0">
          <mxGeometry x="0.0142" y="4" relative="1" as="geometry">
            <mxPoint x="-104" y="-4" as="offset" />
          </mxGeometry>
        </mxCell>
        <mxCell id="-6PEmMJlGs1gWMdDE86d-429" value="" style="endArrow=none;dashed=1;html=1;rounded=0;" parent="1" edge="1">
          <mxGeometry width="50" height="50" relative="1" as="geometry">
            <mxPoint x="1479.86" y="1050" as="sourcePoint" />
            <mxPoint x="1479.86" y="1000" as="targetPoint" />
          </mxGeometry>
        </mxCell>
        <mxCell id="-6PEmMJlGs1gWMdDE86d-488" value="" style="endArrow=none;dashed=1;html=1;rounded=0;" parent="1" edge="1">
          <mxGeometry width="50" height="50" relative="1" as="geometry">
            <mxPoint x="1479.88" y="260" as="sourcePoint" />
            <mxPoint x="1479.88" y="190" as="targetPoint" />
          </mxGeometry>
        </mxCell>
        <mxCell id="-6PEmMJlGs1gWMdDE86d-564" value="" style="html=1;points=[[0,0,0,0,5],[0,1,0,0,-5],[1,0,0,0,5],[1,1,0,0,-5]];perimeter=orthogonalPerimeter;outlineConnect=0;targetShapes=umlLifeline;portConstraint=eastwest;newEdgeStyle={&quot;curved&quot;:0,&quot;rounded&quot;:0};" parent="1" vertex="1">
          <mxGeometry x="1700" y="1050" width="20" height="50" as="geometry" />
        </mxCell>
        <mxCell id="-6PEmMJlGs1gWMdDE86d-565" value="" style="endArrow=open;endFill=1;endSize=12;html=1;rounded=0;" parent="1" source="-6PEmMJlGs1gWMdDE86d-264" edge="1">
          <mxGeometry width="160" relative="1" as="geometry">
            <mxPoint x="1495" y="1099.6000000000004" as="sourcePoint" />
            <mxPoint x="1700" y="1100" as="targetPoint" />
          </mxGeometry>
        </mxCell>
        <mxCell id="-6PEmMJlGs1gWMdDE86d-566" value="&lt;span style=&quot;color: rgba(0, 0, 0, 0); font-family: monospace; font-size: 0px; text-align: start; background-color: rgb(251, 251, 251);&quot;&gt;%3CmxGraphModel%3E%3Croot%3E%3CmxCell%20id%3D%220%22%2F%3E%3CmxCell%20id%3D%221%22%20parent%3D%220%22%2F%3E%3CmxCell%20id%3D%222%22%20value%3D%22Administrator%20issues%20the%20command%20sudo%20apt%20update%26lt%3Bdiv%26gt%3B%26lt%3Bbr%2F%26gt%3B%26lt%3B%2Fdiv%26gt%3B%22%20style%3D%22edgeLabel%3Bhtml%3D1%3Balign%3Dcenter%3BverticalAlign%3Dmiddle%3Bresizable%3D0%3Bpoints%3D%5B%5D%3B%22%20vertex%3D%221%22%20connectable%3D%220%22%20parent%3D%221%22%3E%3CmxGeometry%20x%3D%22359.8571428571429%22%20y%3D%22280%22%20as%3D%22geometry%22%2F%3E%3C%2FmxCell%3E%3C%2Froot%3E%3C%2FmxGraphModel%3E&lt;/span&gt;" style="edgeLabel;html=1;align=center;verticalAlign=middle;resizable=0;points=[];" parent="-6PEmMJlGs1gWMdDE86d-565" vertex="1" connectable="0">
          <mxGeometry x="0.1219" y="1" relative="1" as="geometry">
            <mxPoint as="offset" />
          </mxGeometry>
        </mxCell>
        <mxCell id="-6PEmMJlGs1gWMdDE86d-567" value="&lt;span style=&quot;color: rgba(0, 0, 0, 0); font-family: monospace; font-size: 0px; text-align: start; background-color: rgb(251, 251, 251);&quot;&gt;%3CmxGraphModel%3E%3Croot%3E%3CmxCell%20id%3D%220%22%2F%3E%3CmxCell%20id%3D%221%22%20parent%3D%220%22%2F%3E%3CmxCell%20id%3D%222%22%20value%3D%22Administrator%20logs%20in%20with%20username%20and%20password%22%20style%3D%22edgeLabel%3Bhtml%3D1%3Balign%3Dcenter%3BverticalAlign%3Dmiddle%3Bresizable%3D0%3Bpoints%3D%5B%5D%3B%22%20vertex%3D%221%22%20connectable%3D%220%22%20parent%3D%221%22%3E%3CmxGeometry%20x%3D%22359.8571428571429%22%20y%3D%22177%22%20as%3D%22geometry%22%2F%3E%3C%2FmxCell%3E%3C%2Froot%3E%3C%2FmxGraphModel%3E&lt;/span&gt;" style="edgeLabel;html=1;align=center;verticalAlign=middle;resizable=0;points=[];" parent="-6PEmMJlGs1gWMdDE86d-565" vertex="1" connectable="0">
          <mxGeometry x="-0.0087" y="4" relative="1" as="geometry">
            <mxPoint as="offset" />
          </mxGeometry>
        </mxCell>
        <mxCell id="-6PEmMJlGs1gWMdDE86d-568" value="Get enrolled students" style="edgeLabel;html=1;align=center;verticalAlign=middle;resizable=0;points=[];" parent="-6PEmMJlGs1gWMdDE86d-565" vertex="1" connectable="0">
          <mxGeometry x="0.0142" y="4" relative="1" as="geometry">
            <mxPoint x="-7" y="5" as="offset" />
          </mxGeometry>
        </mxCell>
        <mxCell id="OQuqXElRYrM-AluHmmmo-1" value="" style="shape=umlActor;verticalLabelPosition=bottom;verticalAlign=top;html=1;" vertex="1" parent="1">
          <mxGeometry x="1245" y="20" width="30" height="60" as="geometry" />
        </mxCell>
        <mxCell id="OQuqXElRYrM-AluHmmmo-2" value="" style="endArrow=none;dashed=1;html=1;rounded=0;entryX=0.5;entryY=1;entryDx=0;entryDy=0;" edge="1" parent="1" source="-6PEmMJlGs1gWMdDE86d-373" target="-6PEmMJlGs1gWMdDE86d-369">
          <mxGeometry width="50" height="50" relative="1" as="geometry">
            <mxPoint x="1884.5800000000002" y="840" as="sourcePoint" />
            <mxPoint x="1884.58" y="140" as="targetPoint" />
          </mxGeometry>
        </mxCell>
        <mxCell id="-6PEmMJlGs1gWMdDE86d-369" value="" style="html=1;points=[[0,0,0,0,5],[0,1,0,0,-5],[1,0,0,0,5],[1,1,0,0,-5]];perimeter=orthogonalPerimeter;outlineConnect=0;targetShapes=umlLifeline;portConstraint=eastwest;newEdgeStyle={&quot;curved&quot;:0,&quot;rounded&quot;:0};" parent="1" vertex="1">
          <mxGeometry x="1875" y="520" width="20" height="50" as="geometry" />
        </mxCell>
        <mxCell id="OQuqXElRYrM-AluHmmmo-3" value="" style="endArrow=none;dashed=1;html=1;rounded=0;entryX=0.5;entryY=1;entryDx=0;entryDy=0;" edge="1" parent="1" source="-6PEmMJlGs1gWMdDE86d-230" target="-6PEmMJlGs1gWMdDE86d-373">
          <mxGeometry width="50" height="50" relative="1" as="geometry">
            <mxPoint x="1884.5800000000002" y="840" as="sourcePoint" />
            <mxPoint x="1885" y="570" as="targetPoint" />
          </mxGeometry>
        </mxCell>
        <mxCell id="-6PEmMJlGs1gWMdDE86d-373" value="" style="html=1;points=[[0,0,0,0,5],[0,1,0,0,-5],[1,0,0,0,5],[1,1,0,0,-5]];perimeter=orthogonalPerimeter;outlineConnect=0;targetShapes=umlLifeline;portConstraint=eastwest;newEdgeStyle={&quot;curved&quot;:0,&quot;rounded&quot;:0};" parent="1" vertex="1">
          <mxGeometry x="1875" y="665" width="20" height="50" as="geometry" />
        </mxCell>
        <mxCell id="OQuqXElRYrM-AluHmmmo-4" value="" style="endArrow=none;dashed=1;html=1;rounded=0;entryX=0.5;entryY=1;entryDx=0;entryDy=0;" edge="1" parent="1" source="-6PEmMJlGs1gWMdDE86d-236">
          <mxGeometry width="50" height="50" relative="1" as="geometry">
            <mxPoint x="1884.86" y="835" as="sourcePoint" />
            <mxPoint x="1884.86" y="800" as="targetPoint" />
          </mxGeometry>
        </mxCell>
      </root>
    </mxGraphModel>
  </diagram>
</mxfile>
